<svg width="9" height="10" viewBox="0 0 9 10" fill="none" xmlns="http://www.w3.org/2000/svg">
<path fill-rule="evenodd" clip-rule="evenodd" d="M1.46592 1.12098C1.19813 0.853192 0.763962 0.853192 0.496173 1.12098C0.228385 1.38877 0.228386 1.82294 0.496174 2.09073L2.69836 4.29292C3.08889 4.68344 3.08889 5.3166 2.69836 5.70713L0.49623 7.90926C0.228442 8.17705 0.228442 8.61122 0.49623 8.87901C0.764018 9.1468 1.19819 9.1468 1.46598 8.87901L3.66811 6.67688C4.05863 6.28635 4.6918 6.28635 5.08232 6.67687L7.2844 8.87895C7.55219 9.14674 7.98636 9.14674 8.25414 8.87895C8.52193 8.61116 8.52193 8.17699 8.25415 7.90921L6.05207 5.70713C5.66154 5.3166 5.66154 4.68344 6.05207 4.29292L8.2542 2.09078C8.52199 1.82299 8.52199 1.38882 8.2542 1.12104C7.98641 0.853249 7.55224 0.853248 7.28446 1.12104L5.08232 3.32317C4.6918 3.71369 4.05863 3.71369 3.66811 3.32317L1.46592 1.12098Z" fill="#FF8303"/>
</svg>
